Coordinates
version=1
nRows=14
nColumns=40
inDegrees=yes

Units are S.I. units (second, meters, Newtons, ...)
Angles are in degrees.

endheader
time	pelvis_tilt	pelvis_list	pelvis_rotation	pelvis_tx	pelvis_ty	pelvis_tz	hip_flexion_r	hip_adduction_r	hip_rotation_r	knee_angle_r	knee_angle_r_beta	ankle_angle_r	subtalar_angle_r	mtp_angle_r	hip_flexion_l	hip_adduction_l	hip_rotation_l	knee_angle_l	knee_angle_l_beta	ankle_angle_l	subtalar_angle_l	mtp_angle_l	lumbar_extension	lumbar_bending	lumbar_rotation	arm_flex_r	arm_add_r	arm_rot_r	elbow_flex_r	pro_sup_r	wrist_flex_r	wrist_dev_r	arm_flex_l	arm_add_l	arm_rot_l	elbow_flex_l	pro_sup_l	wrist_flex_l	wrist_dev_l
     51.76900000	     -5.61359680	     -4.43299738	      8.97769223	      0.87895926	      0.91719368	      0.54981373	      5.39783890	      3.93726099	    -15.95037604	     16.92745926	     16.92745926	     18.53233836	     -7.57319370	     -2.19430877	     29.62244395	     -6.69679649	      0.90697378	     18.23344769	     18.23344769	      2.67712611	     -2.60516586	     -0.15347269	     -8.40596848	      4.04208617	      1.92059487	     47.85825540	    -19.64560700	    -12.69520301	     75.63545578	     44.99357142	      0.00000000	      0.00000000	    -15.75915563	     -9.51159527	     14.23741481	     31.91443796	     44.03116730	      0.00000000	      0.00000000
     51.78800000	     -5.75171469	     -4.48411970	      9.05134697	      0.87917343	      0.91639367	      0.54646507	      5.08172673	      3.81539215	    -15.96008826	     16.88693600	     16.88693600	     18.72233453	     -7.57205049	     -2.19517777	     29.66721116	     -6.52127767	      0.90199916	     18.81898784	     18.81898784	      2.57273572	     -2.98904364	     -0.44302517	     -8.32272777	      3.81290797	      1.86349034	     48.43885186	    -19.43714724	    -12.66303724	     75.98787536	     44.98639510	      0.00000000	      0.00000000	    -15.05104855	     -9.41473658	     14.29546945	     32.09568661	     44.04450145	      0.00000000	      0.00000000
     51.80700000	     -5.85056031	     -4.55214722	      9.11605600	      0.87958176	      0.91570449	      0.54295967	      4.70361394	      3.69987870	    -16.02217219	     16.83258338	     16.83258338	     18.88563400	     -7.50285327	     -2.14987080	     29.79305171	     -6.36117932	      1.04712084	     19.71459355	     19.71459355	      2.55228745	     -3.61804487	     -0.88355223	     -8.28164071	      3.62969974	      1.78071821	     48.79114839	    -19.18056931	    -12.67192360	     76.38869208	     44.97858105	      0.00000000	      0.00000000	    -14.25261225	     -9.34131548	     14.34813321	     32.28651706	     44.06136136	      0.00000000	      0.00000000
     51.82600000	     -5.94493147	     -4.63395846	      9.15350268	      0.88015887	      0.91519696	      0.53927571	      4.28806239	      3.58549299	    -16.11786168	     16.73189989	     16.73189989	     18.98822010	     -7.34471883	     -2.04355654	     29.93414468	     -6.18458599	      1.35877011	     20.70506340	     20.70506340	      2.60372302	     -4.50023821	     -1.29686447	     -8.23401656	      3.49455203	      1.77043661	     48.95504607	    -18.96645704	    -12.74034234	     76.77645201	     44.97338085	      0.00000000	      0.00000000	    -13.35145656	     -9.30950686	     14.38047607	     32.49059661	     44.08480439	      0.00000000	      0.00000000
     51.84500000	     -6.02130113	     -4.61709389	      9.09368198	      0.88087414	      0.91498937	      0.53559933	      3.82292398	      3.37341751	    -16.09725919	     16.60984290	     16.60984290	     19.00734491	     -7.19172308	     -1.95116409	     29.95272767	     -5.95873341	      1.54470484	     21.60564358	     21.60564358	      2.82878567	     -5.27244748	     -1.54770190	     -8.21779297	      3.22289068	      1.81802235	     48.98045395	    -18.72760317	    -12.72406634	     76.91912834	     44.97029725	      0.00000000	      0.00000000	    -12.40392269	     -9.40419488	     14.34535027	     32.73878467	     44.11010331	      0.00000000	      0.00000000
     51.86400000	     -6.10737637	     -4.77249383	      9.02401610	      0.88169202	      0.91486946	      0.53177958	      3.32238501	      3.32126037	    -16.25733610	     16.36347345	     16.36347345	     18.98548507	     -6.70467571	     -1.76733761	     30.06659339	     -5.77559538	      2.31242591	     22.60488515	     22.60488515	      3.13367442	     -6.73393750	     -1.55343521	     -8.15386869	      3.19802227	      2.06308029	     48.86883747	    -18.72727827	    -12.94610633	     77.14083991	     44.97674289	      0.00000000	      0.00000000	    -11.37888953	     -9.45158105	     14.27580602	     32.97830072	     44.15406085	      0.00000000	      0.00000000
     51.88300000	     -6.19659257	     -4.73159884	      8.82095005	      0.88264484	      0.91509796	      0.52804612	      2.87393819	      3.05078853	    -16.16758489	     16.26503739	     16.26503739	     18.87296422	     -6.47800737	     -1.66894093	     29.94533462	     -5.55603488	      2.41193487	     23.27865643	     23.27865643	      3.53324350	     -7.41518690	     -1.67231938	     -8.10015455	      2.95306658	      2.21085580	     48.66457906	    -18.43191750	    -12.87930684	     77.08042311	     44.97710293	      0.00000000	      0.00000000	    -10.42720467	     -9.65888395	     14.17865605	     33.25097796	     44.18561326	      0.00000000	      0.00000000
     51.90200000	     -6.27454516	     -4.80916422	      8.56450488	      0.88367012	      0.91549992	      0.52434225	      2.34286383	      2.87369378	    -16.39478053	     16.01113044	     16.01113044	     18.72543077	     -5.62589600	     -1.50404972	     29.81024923	     -5.31407310	      3.15155619	     23.94082087	     23.94082087	      4.10856159	     -8.98694724	     -1.02632944	     -8.03255264	      2.82951609	      2.74021459	     48.30811484	    -18.62132088	    -13.23159794	     76.77336155	     45.00783392	      0.00000000	      0.00000000	     -9.37377178	     -9.83532639	     13.84906938	     33.61737555	     44.27338043	      0.00000000	      0.00000000
     51.92100000	     -6.37041618	     -4.84449155	      8.23926903	      0.88467507	      0.91602845	      0.52074855	      1.94554459	      2.63424241	    -16.42441150	     15.96095939	     15.96095939	     18.51116950	     -5.06230338	     -1.41421507	     29.60162516	     -5.16643775	      3.35402145	     24.44096568	     24.44096568	      4.74188165	     -9.75820388	     -0.68519472	     -7.94216920	      2.71080681	      3.09453764	     48.00622688	    -18.50533040	    -13.33588555	     76.28449737	     45.03363344	      0.00000000	      0.00000000	     -8.39729196	    -10.08630216	     13.49511582	     34.00858396	     44.35555038	      0.00000000	      0.00000000
     51.94000000	     -6.48888203	     -4.81179670	      7.86322170	      0.88566245	      0.91669117	      0.51720047	      1.66094127	      2.26300430	    -16.51504893	     16.09550538	     16.09550538	     18.30211006	     -4.35054782	     -1.43843829	     29.32968237	     -4.97523681	      3.45180098	     24.83005408	     24.83005408	      5.71081682	    -10.26116030	      0.44403207	     -7.82948883	      2.52971700	      3.18424237	     47.90152818	    -17.96233497	    -13.44891937	     75.16881025	     45.09763981	      0.00000000	      0.00000000	     -7.67049399	    -10.30033943	     12.38898833	     34.50246025	     44.58240832	      0.00000000	      0.00000000
     51.95900000	     -6.58131747	     -4.82706843	      7.42928762	      0.88665834	      0.91751426	      0.51380901	      1.39853594	      1.97703459	    -16.34948050	     16.26091914	     16.26091914	     17.96417545	     -4.03204215	     -1.43912391	     28.92527451	     -4.91144462	      3.32115059	     24.98347129	     24.98347129	      6.24644778	    -10.64455659	      0.43252186	     -7.73740296	      2.40068759	      3.58726608	     47.41414759	    -17.90823224	    -13.39670230	     74.30910514	     45.12689796	      0.00000000	      0.00000000	     -6.75076863	    -10.65561806	     12.01400573	     34.94115617	     44.65620542	      0.00000000	      0.00000000
     51.97800000	     -6.69142090	     -4.80941416	      6.98734167	      0.88752937	      0.91839467	      0.51041313	      1.30189649	      1.58259990	    -16.26215435	     16.69818880	     16.69818880	     17.61906474	     -3.63631706	     -1.61127510	     28.45286438	     -4.81283535	      3.13780006	     24.96389112	     24.96389112	      6.72674633	    -10.97777674	      0.52711628	     -7.63563427	      2.26531658	      3.87743955	     47.00145505	    -17.72205954	    -13.39013900	     73.06399706	     45.17139395	      0.00000000	      0.00000000	     -5.83585361	    -11.02719496	     11.54156456	     35.39776995	     44.74399604	      0.00000000	      0.00000000
     51.99700000	     -6.78131490	     -4.80165717	      6.57359906	      0.88833086	      0.91932094	      0.50698358	      1.24693118	      1.17060272	    -16.25650162	     17.21897037	     17.21897037	     17.08577590	     -3.27569876	     -2.34825014	     27.95900029	     -4.71569399	      2.93540509	     24.93248537	     24.93248537	      7.28073019	    -11.23565208	      0.88592500	     -7.52560742	      2.19555398	      3.46711493	     47.23069002	    -16.69042691	    -13.26498219	     70.33628505	     45.27612317	      0.00000000	      0.00000000	     -5.29435425	    -11.28818227	     10.02646010	     35.85785521	     45.00122552	      0.00000000	      0.00000000
     52.01600000	     -6.79970359	     -4.84039105	      6.18084838	      0.88916010	      0.92035384	      0.50358629	      1.20701437	      0.83315407	    -16.03459788	     17.89095478	     17.89095478	     16.72749775	     -3.19218312	     -2.45580007	     27.34646705	     -4.68963132	      2.68167152	     24.80199617	     24.80199617	      7.71696275	    -11.37018853	      0.79465431	     -7.53786499	      2.21093552	      3.57102535	     46.38466034	    -16.37829804	    -13.14219959	     69.67201197	     45.29115333	      0.00000000	      0.00000000	     -4.32418043	    -11.72054142	      9.80259602	     36.17014293	     45.04552941	      0.00000000	      0.00000000
